<?xml version="1.0" encoding="utf-8"?>
<!-- Generator: Adobe Illustrator 24.1.2, SVG Export Plug-In . SVG Version: 6.00 Build 0)  -->
<svg version="1.1" id="Layer_1" xmlns="http://www.w3.org/2000/svg" xmlns:xlink="http://www.w3.org/1999/xlink" x="0px" y="0px"
	 viewBox="0 0 220 220" style="enable-background:new 0 0 220 220;" xml:space="preserve">
<style type="text/css">
	.st0{fill:#0A7C10;}
	.st1{fill:#962D91;}
</style>
<path class="st0" d="M97.1,0C42.4,6.4,0,53.1,0,109.7s42.4,103.2,97.1,109.6v-36.6c-34.6-6.1-60.9-36.5-60.9-73s26.3-66.9,60.9-73V0
	z M122.9,0v36.6c34.6,6.1,60.9,36.5,60.9,73s-26.3,66.9-60.9,73v36.6c54.7-6.4,97.1-53.1,97.1-109.6S177.6,6.4,122.9,0z"/>
<path class="st1" d="M105.2,57.7H95v-6.4h10.2V57.7z M114.3,106.4v9.8h6.3v6.4h-6.3v26.1h7.4v6.4h-7.4V220h-6.4v-64.9h-6.3v-6.4h6.3
	v-26.1h-35v-6.4h35v-9.8H90.6V100H108v-9.8H77.4v-6.4H108V74H73v-6.4h35V2.7h6.4v64.9h5.2V74h-5.2v26h17.4v6.4H114.3z M89.9,168.8
	l7,7l7-7l-7-7L89.9,168.8z M101.9,138.9H68.5v-6.4h33.4V138.9z"/>
</svg>
